<svg 
viewBox="0 0 328 32"
 fill="none"
  xmlns="http://www.w3.org/2000/svg">
<path d="M22.8571 16C22.8571 17.578 21.578 18.8571 20 18.8571C18.422 18.8571 17.1429 17.578 17.1429 16C17.1429 14.422 18.422 13.1429 20 13.1429C21.578 13.1429 22.8571 14.422 22.8571 16Z" fill="#212121"/>
<path fill-rule="evenodd" clip-rule="evenodd" d="M20 28C26.0454 28 31.0467 23.5296 31.8785 17.7143H24.8502C24.1442 19.7118 22.2392 21.1429 20 21.1429C17.7608 21.1429 15.8558 19.7118 15.1498 17.7143H8.12152C8.95335 23.5296 13.9546 28 20 28ZM15.1498 14.2857H8.12152C8.95335 8.47035 13.9546 4 20 4C26.0454 4 31.0467 8.47035 31.8785 14.2857H24.8502C24.1442 12.2882 22.2392 10.8571 20 10.8571C17.7608 10.8571 15.8558 12.2882 15.1498 14.2857ZM22.8571 16C22.8571 17.578 21.578 18.8571 20 18.8571C18.422 18.8571 17.1429 17.578 17.1429 16C17.1429 14.422 18.422 13.1429 20 13.1429C21.578 13.1429 22.8571 14.422 22.8571 16Z" fill="#212121"/>
<path d="M62.328 12.576C62.328 13.552 62.104 14.448 61.656 15.264C61.208 16.064 60.52 16.712 59.592 17.208C58.664 17.704 57.512 17.952 56.136 17.952H53.592V24H49.488V7.152H56.136C57.48 7.152 58.616 7.384 59.544 7.848C60.472 8.312 61.168 8.952 61.632 9.768C62.096 10.584 62.328 11.52 62.328 12.576ZM55.824 14.688C56.608 14.688 57.192 14.504 57.576 14.136C57.96 13.768 58.152 13.248 58.152 12.576C58.152 11.904 57.96 11.384 57.576 11.016C57.192 10.648 56.608 10.464 55.824 10.464H53.592V14.688H55.824ZM70.5606 24.192C69.2486 24.192 68.0646 23.912 67.0086 23.352C65.9686 22.792 65.1446 21.992 64.5366 20.952C63.9446 19.912 63.6486 18.696 63.6486 17.304C63.6486 15.928 63.9526 14.72 64.5606 13.68C65.1686 12.624 66.0006 11.816 67.0566 11.256C68.1126 10.696 69.2966 10.416 70.6086 10.416C71.9206 10.416 73.1046 10.696 74.1606 11.256C75.2166 11.816 76.0486 12.624 76.6566 13.68C77.2646 14.72 77.5686 15.928 77.5686 17.304C77.5686 18.68 77.2566 19.896 76.6326 20.952C76.0246 21.992 75.1846 22.792 74.1126 23.352C73.0566 23.912 71.8726 24.192 70.5606 24.192ZM70.5606 20.64C71.3446 20.64 72.0086 20.352 72.5526 19.776C73.1126 19.2 73.3926 18.376 73.3926 17.304C73.3926 16.232 73.1206 15.408 72.5766 14.832C72.0486 14.256 71.3926 13.968 70.6086 13.968C69.8086 13.968 69.1446 14.256 68.6166 14.832C68.0886 15.392 67.8246 16.216 67.8246 17.304C67.8246 18.376 68.0806 19.2 68.5926 19.776C69.1206 20.352 69.7766 20.64 70.5606 20.64ZM87.9298 24L83.8498 18.384V24H79.7458V6.24H83.8498V16.056L87.9058 10.608H92.9698L87.4018 17.328L93.0178 24H87.9298ZM107.206 17.088C107.206 17.472 107.182 17.872 107.134 18.288H97.8458C97.9098 19.12 98.1738 19.76 98.6378 20.208C99.1178 20.64 99.7018 20.856 100.39 20.856C101.414 20.856 102.126 20.424 102.526 19.56H106.894C106.67 20.44 106.262 21.232 105.67 21.936C105.094 22.64 104.366 23.192 103.486 23.592C102.606 23.992 101.622 24.192 100.534 24.192C99.2218 24.192 98.0538 23.912 97.0298 23.352C96.0058 22.792 95.2058 21.992 94.6298 20.952C94.0538 19.912 93.7658 18.696 93.7658 17.304C93.7658 15.912 94.0458 14.696 94.6058 13.656C95.1818 12.616 95.9818 11.816 97.0058 11.256C98.0298 10.696 99.2058 10.416 100.534 10.416C101.83 10.416 102.982 10.688 103.99 11.232C104.998 11.776 105.782 12.552 106.342 13.56C106.918 14.568 107.206 15.744 107.206 17.088ZM103.006 16.008C103.006 15.304 102.766 14.744 102.286 14.328C101.806 13.912 101.206 13.704 100.486 13.704C99.7978 13.704 99.2138 13.904 98.7338 14.304C98.2698 14.704 97.9818 15.272 97.8698 16.008H103.006ZM103.294 7.176L97.5098 9.6V6.768L103.294 3.984V7.176ZM108.555 17.28C108.555 15.904 108.811 14.696 109.323 13.656C109.851 12.616 110.563 11.816 111.459 11.256C112.355 10.696 113.355 10.416 114.459 10.416C115.339 10.416 116.139 10.6 116.859 10.968C117.595 11.336 118.171 11.832 118.587 12.456V6.24H122.691V24H118.587V22.08C118.203 22.72 117.651 23.232 116.931 23.616C116.227 24 115.403 24.192 114.459 24.192C113.355 24.192 112.355 23.912 111.459 23.352C110.563 22.776 109.851 21.968 109.323 20.928C108.811 19.872 108.555 18.656 108.555 17.28ZM118.587 17.304C118.587 16.28 118.299 15.472 117.723 14.88C117.163 14.288 116.475 13.992 115.659 13.992C114.843 13.992 114.147 14.288 113.571 14.88C113.011 15.456 112.731 16.256 112.731 17.28C112.731 18.304 113.011 19.12 113.571 19.728C114.147 20.32 114.843 20.616 115.659 20.616C116.475 20.616 117.163 20.32 117.723 19.728C118.299 19.136 118.587 18.328 118.587 17.304ZM138.284 17.088C138.284 17.472 138.26 17.872 138.212 18.288H128.924C128.988 19.12 129.252 19.76 129.716 20.208C130.196 20.64 130.78 20.856 131.468 20.856C132.492 20.856 133.204 20.424 133.604 19.56H137.972C137.748 20.44 137.34 21.232 136.748 21.936C136.172 22.64 135.444 23.192 134.564 23.592C133.684 23.992 132.7 24.192 131.612 24.192C130.3 24.192 129.132 23.912 128.108 23.352C127.084 22.792 126.284 21.992 125.708 20.952C125.132 19.912 124.844 18.696 124.844 17.304C124.844 15.912 125.124 14.696 125.684 13.656C126.26 12.616 127.06 11.816 128.084 11.256C129.108 10.696 130.284 10.416 131.612 10.416C132.908 10.416 134.06 10.688 135.068 11.232C136.076 11.776 136.86 12.552 137.42 13.56C137.996 14.568 138.284 15.744 138.284 17.088ZM134.084 16.008C134.084 15.304 133.844 14.744 133.364 14.328C132.884 13.912 132.284 13.704 131.564 13.704C130.876 13.704 130.292 13.904 129.812 14.304C129.348 14.704 129.06 15.272 128.948 16.008H134.084ZM148.369 24L145.801 20.28L143.641 24H139.201L143.617 17.16L139.081 10.608H143.689L146.257 14.304L148.417 10.608H152.857L148.369 17.352L152.977 24H148.369Z" fill="#212121"/>
</svg>
