<svg width="194" height="24" viewBox="0 0 194 24" fill="none" xmlns="http://www.w3.org/2000/svg">
<path d="M159.945 23.3262L158.048 21.4294C158.012 21.3935 157.965 21.3747 157.915 21.3747H157.709C158.201 20.8045 158.5 20.0623 158.5 19.2498C158.5 17.4546 157.045 16 155.25 16C153.455 16 152 17.4546 152 19.2498C152 21.0451 153.455 22.4997 155.25 22.4997C156.062 22.4997 156.804 22.2013 157.375 21.7091V21.9153C157.375 21.9653 157.395 22.0122 157.429 22.0481L159.326 23.9449C159.4 24.0184 159.518 24.0184 159.592 23.9449L159.945 23.5918C160.018 23.5184 160.018 23.3996 159.945 23.3262ZM155.25 21.7497C153.869 21.7497 152.75 20.631 152.75 19.2498C152.75 17.8687 153.869 16.75 155.25 16.75C156.631 16.75 157.75 17.8687 157.75 19.2498C157.75 20.631 156.631 21.7497 155.25 21.7497Z" fill="#212121"/>
</svg>

